<svg xmlns="http://www.w3.org/2000/svg" width="1280" height="720" viewBox="0 0 1280 720">
  <defs>
    <style>
      text { font-family: "Noto Sans CJK SC"; fill: #d7dfd1; font-size: 17px; }
      .small { font-size: 14px; fill: #b9c4b6; }
      .title { font-size: 20px; fill: #f0cf68; }
      .gold { fill: #f0cf68; }
      .coral { fill: #ef8b72; }
      .muted { fill: #9cac9c; }
      .panel { fill: #101b17; stroke: #738478; stroke-width: 3; }
      .accent-panel { fill: #1d1417; stroke: #c96f5b; stroke-width: 4; }
      .gold-panel { fill: #17211c; stroke: #d9b65b; stroke-width: 4; }
    </style>
    <linearGradient id="ground" x1="0" y1="0" x2="0" y2="1">
      <stop offset="0" stop-color="#1c3c2b"/>
      <stop offset="1" stop-color="#365f42"/>
    </linearGradient>
    <marker id="arrow" markerUnits="userSpaceOnUse" markerWidth="9" markerHeight="9" refX="8" refY="4.5" orient="auto">
      <path d="M0,0 L9,4.5 L0,9 Z" fill="#aec2ae"/>
    </marker>
  </defs>

  <rect width="1280" height="720" fill="url(#ground)"/>
  <path d="M0 100 L180 64 L450 126 L700 55 L960 155 L1280 90 L1280 335 L1100 230 L870 330 L635 215 L450 320 L180 210 L0 310 Z" fill="#244e36"/>
  <path d="M0 500 L1280 500 L1280 720 L0 720 Z" fill="#3f714d" opacity=".56"/>

  <rect x="22" y="18" width="373" height="53" rx="9" class="panel"/>
  <text x="42" y="51">生命 83/100  ·  体力 74/100  ·  平原</text>

  <rect x="930" y="18" width="327" height="128" rx="9" class="accent-panel"/>
  <text x="952" y="49" class="title">武器 · 石剑</text>
  <text x="1135" y="49" class="coral">连击 2/3</text>
  <text x="952" y="77" class="small">attack_id=7 · Area2D=54×30</text>
  <rect x="952" y="91" width="282" height="14" rx="7" fill="#3b272d"/>
  <rect x="952" y="91" width="129" height="14" rx="7" fill="#ec806c"/>
  <text x="952" y="130" class="small">冷却 0.18s · 墓碑 1 · E 取回</text>

  <text x="315" y="215">玩家 · 面向右</text>
  <rect x="305" y="228" width="105" height="154" rx="9" fill="#111b18" stroke="#e0bd5d" stroke-width="2"/>
  <path d="M357 249 L372 263 L377 289 L369 336 L345 336 L337 289 L343 263 Z" fill="#355b4c" stroke="#9ad9b9" stroke-width="4"/>
  <path d="M372 286 L438 286" stroke="#b9c8c1" stroke-width="8"/>
  <path d="M372 286 L391 286" stroke="#82523b" stroke-width="8"/>
  <path d="M472 264 Q512 304 472 352" fill="none" stroke="#f0cf68" stroke-width="7"/>
  <rect x="454" y="276" width="133" height="59" fill="#7a643c" fill-opacity=".32" stroke="#b8a05c" stroke-width="3"/>
  <text x="468" y="300" class="small">Area2D</text>
  <text x="468" y="323" class="gold">攻击区 · 54×30</text>
  <path d="M587 305 L620 305" stroke="#ed8a72" stroke-width="5" marker-end="url(#arrow)"/>
  <text x="315" y="370" class="gold">石剑耐久 69/80</text>

  <text x="614" y="215">训练目标 · 50/60</text>
  <rect x="599" y="224" width="137" height="168" rx="10" fill="#171714" stroke="#e0bd5d" stroke-width="4"/>
  <rect x="620" y="236" width="96" height="14" rx="7" fill="#1e312a"/>
  <rect x="620" y="236" width="80" height="14" rx="7" fill="#da6757"/>
  <path d="M644 258 H691 V271 H683 V334 H653 V271 H644 Z" fill="#e7bc55"/>
  <path d="M651 283 L686 319 M686 283 L651 319" stroke="#654626" stroke-width="5"/>
  <text x="614" y="367" class="gold">受到 10 点伤害</text>
  <text x="614" y="386" class="small">同一攻击仅命中一次</text>

  <rect x="42" y="435" width="784" height="158" rx="10" class="panel"/>
  <text x="66" y="468" class="title">受击、无敌与重生</text>
  <text x="67" y="502" class="small">受到 17 点伤害</text>
  <text x="67" y="536" class="small">受击无敌 0.55s · 第二次伤害无效</text>
  <text x="67" y="570" class="small">已在安全位置重生 · 生命 100/100</text>
  <rect x="338" y="482" width="137" height="35" rx="8" fill="#d66858"/>
  <text x="366" y="506" fill="#fff">受到伤害</text>
  <path d="M475 500 H516" stroke="#aec2ae" stroke-width="4" marker-end="url(#arrow)"/>
  <rect x="516" y="482" width="137" height="35" rx="8" fill="#c8a94e"/>
  <text x="549" y="506" fill="#fff">短暂无敌</text>
  <path d="M653 500 H694" stroke="#aec2ae" stroke-width="4" marker-end="url(#arrow)"/>
  <rect x="694" y="482" width="107" height="35" rx="8" fill="#639667"/>
  <text x="731" y="506" fill="#fff">重生</text>

  <rect x="866" y="431" width="373" height="164" rx="10" class="panel"/>
  <text x="978" y="474" class="title">墓碑 1</text>
  <circle cx="925" cy="510" r="33" fill="#394648" stroke="#e3be55" stroke-width="3"/>
  <path d="M902 474 H949 V482 H941 V543 H910 V482 H902 Z" fill="#a8b0ad"/>
  <path d="M914 499 H937 M925 488 V529" stroke="#374448" stroke-width="4"/>
  <text x="978" y="507">木材 ×7</text>
  <text x="978" y="538">石剑 · 耐久 69</text>
  <text x="978" y="569" class="small">已取回墓碑中的 8 件物品</text>

  <rect x="361" y="626" width="558" height="82" rx="11" class="gold-panel"/>
  <rect x="375" y="638" width="66" height="56" fill="#14201a" stroke="#f0cf68" stroke-width="5"/>
  <rect x="449" y="641" width="56" height="51" fill="#1c2b23" stroke="#627264" stroke-width="2"/>
  <rect x="513" y="641" width="59" height="51" fill="#1c2b23" stroke="#627264" stroke-width="2"/>
  <rect x="580" y="641" width="59" height="51" fill="#1c2b23" stroke="#627264" stroke-width="2"/>
  <rect x="647" y="641" width="59" height="51" fill="#1c2b23" stroke="#627264" stroke-width="2"/>
  <rect x="714" y="641" width="59" height="51" fill="#1c2b23" stroke="#627264" stroke-width="2"/>
  <rect x="781" y="641" width="59" height="51" fill="#1c2b23" stroke="#627264" stroke-width="2"/>
  <rect x="848" y="641" width="59" height="51" fill="#1c2b23" stroke="#627264" stroke-width="2"/>
  <rect x="384" y="644" width="50" height="34" fill="#aab1aa"/>
  <rect x="397" y="649" width="24" height="23" fill="#333c39"/>
  <text x="390" y="651" font-size="11" fill="#2e3c31">69/80</text>
  <text x="381" y="688" font-size="12">1</text><text x="449" y="688" font-size="12">2</text>
  <text x="516" y="688" font-size="12">3</text><text x="583" y="688" font-size="12">4</text>
  <text x="650" y="688" font-size="12">5</text><text x="717" y="688" font-size="12">6</text>
  <text x="784" y="688" font-size="12">7</text><text x="851" y="688" font-size="12">8</text>
  <text x="977" y="684" class="small">J / 左键: 攻击    E: 交互</text>
</svg>
